# xmcd
#
# Track frame offsets: 
#        150
#        13386
#        24565
#        39563
#        49934
#        60906
#        66616
#        81070
#        87566
#        95588
#        105794
#        110691
#
# Disc length: 1744 seconds
#
# Revision: 0
# Processed by: cddbd v1.5.1PL0 Copyright (c) Steve Scherf et al.
# Submitted via: ExactAudioCopy v0.95a5
#
DISCID=9d06ce0c
DTITLE=Tammy Wynette - Welcome to my World
DYEAR=2002
DGENRE=Country
TTITLE0=Stand by Your Man
TTITLE1=D.I.V.O.R.C.E
TTITLE2=Crying in the Rain
TTITLE3=Another Chance
TTITLE4=I still believe in Fairytales
TTITLE5=Singing my Song
TTITLE6=Till I can make it on my own
TTITLE7=Welcome to my World
TTITLE8=When the grass grows over me
TTITLE9=Womanhood
TTITLE10=Your good girl's gonna go bad
TTITLE11=Medley - Amauing graze, I'll fly away, Will the circle be bro
TTITLE11=ken, I saw the light
EXTD=
EXTT0=
EXTT1=
EXTT2=
EXTT3=
EXTT4=
EXTT5=
EXTT6=
EXTT7=
EXTT8=
EXTT9=
EXTT10=
EXTT11=
PLAYORDER=
